<?xml version="1.0" encoding="UTF-8"?>
<svg xmlns="http://www.w3.org/2000/svg" xmlns:xlink="http://www.w3.org/1999/xlink" width="32px" height="32px" viewBox="0 0 32 32" version="1.1">
<g id="surface1">
<path style=" stroke:none;fill-rule:nonzero;fill:rgb(63.921569%,63.921569%,80.392157%);fill-opacity:1;" d="M 9.621094 25.6875 L 4.855469 26.28125 L 6.640625 23.003906 L 2.472656 21.8125 L 6.046875 19.132812 L 1.875 14.960938 L 6.046875 13.769531 L 1.28125 7.214844 L 8.132812 8.40625 L 6.640625 0.960938 L 13.792969 5.726562 L 18.558594 0.960938 L 19.152344 7.214844 L 26.898438 5.429688 L 23.921875 12.28125 L 29.28125 14.664062 L 24.21875 17.34375 L 28.089844 20.027344 L 24.8125 21.515625 L 26.601562 25.089844 L 22.730469 25.386719 L 23.027344 27.472656 L 14.984375 25.386719 Z M 9.621094 25.6875 "/>
<path style=" stroke:none;fill-rule:nonzero;fill:rgb(0%,0%,0%);fill-opacity:1;" d="M 23.027344 27.792969 C 23 27.792969 22.972656 27.789062 22.945312 27.78125 L 14.953125 25.710938 L 9.648438 26.003906 L 4.894531 26.597656 C 4.777344 26.613281 4.660156 26.5625 4.589844 26.460938 C 4.523438 26.363281 4.515625 26.234375 4.574219 26.128906 L 6.167969 23.203125 L 2.382812 22.121094 C 2.265625 22.085938 2.179688 21.988281 2.15625 21.871094 C 2.136719 21.75 2.183594 21.628906 2.28125 21.558594 L 5.558594 19.097656 L 1.648438 15.1875 C 1.570312 15.109375 1.539062 14.992188 1.566406 14.882812 C 1.59375 14.769531 1.679688 14.683594 1.789062 14.652344 L 5.519531 13.585938 L 1.019531 7.402344 C 0.945312 7.296875 0.9375 7.15625 1.007812 7.046875 C 1.078125 6.9375 1.207031 6.878906 1.335938 6.902344 L 7.726562 8.011719 L 6.328125 1.023438 C 6.304688 0.894531 6.355469 0.765625 6.464844 0.695312 C 6.570312 0.621094 6.710938 0.621094 6.820312 0.695312 L 13.75 5.316406 L 18.332031 0.734375 C 18.417969 0.644531 18.550781 0.617188 18.667969 0.660156 C 18.785156 0.699219 18.867188 0.804688 18.875 0.929688 L 19.4375 6.820312 L 26.828125 5.117188 C 26.945312 5.089844 27.070312 5.132812 27.144531 5.222656 C 27.222656 5.316406 27.242188 5.445312 27.191406 5.554688 L 24.339844 12.117188 L 29.414062 14.371094 C 29.523438 14.421875 29.597656 14.53125 29.601562 14.652344 C 29.605469 14.773438 29.542969 14.890625 29.433594 14.945312 L 24.832031 17.382812 L 28.273438 19.761719 C 28.367188 19.828125 28.421875 19.9375 28.410156 20.054688 C 28.398438 20.167969 28.328125 20.269531 28.222656 20.316406 L 25.25 21.667969 L 26.886719 24.945312 C 26.9375 25.042969 26.933594 25.15625 26.878906 25.246094 C 26.828125 25.339844 26.734375 25.398438 26.625 25.410156 L 23.09375 25.679688 L 23.34375 27.429688 C 23.359375 27.535156 23.320312 27.640625 23.242188 27.710938 C 23.179688 27.765625 23.105469 27.792969 23.027344 27.792969 Z M 14.984375 25.066406 C 15.011719 25.066406 15.039062 25.070312 15.0625 25.078125 L 22.640625 27.042969 L 22.414062 25.433594 C 22.398438 25.347656 22.425781 25.257812 22.480469 25.1875 C 22.535156 25.117188 22.617188 25.074219 22.703125 25.070312 L 26.101562 24.808594 L 24.527344 21.660156 C 24.488281 21.582031 24.484375 21.492188 24.511719 21.410156 C 24.542969 21.328125 24.601562 21.261719 24.679688 21.222656 L 27.445312 19.96875 L 24.035156 17.609375 C 23.945312 17.542969 23.890625 17.4375 23.898438 17.324219 C 23.90625 17.214844 23.96875 17.113281 24.070312 17.0625 L 28.550781 14.6875 L 23.789062 12.574219 C 23.628906 12.5 23.558594 12.3125 23.628906 12.152344 L 26.351562 5.882812 L 19.226562 7.527344 C 19.136719 7.546875 19.042969 7.53125 18.96875 7.476562 C 18.890625 7.421875 18.84375 7.339844 18.835938 7.246094 L 18.304688 1.667969 L 14.019531 5.953125 C 13.910156 6.0625 13.742188 6.078125 13.613281 5.992188 L 7.109375 1.65625 L 8.445312 8.34375 C 8.464844 8.449219 8.433594 8.554688 8.359375 8.632812 C 8.289062 8.707031 8.179688 8.742188 8.078125 8.722656 L 2.003906 7.667969 L 6.304688 13.582031 C 6.367188 13.664062 6.382812 13.773438 6.347656 13.875 C 6.316406 13.972656 6.234375 14.046875 6.132812 14.078125 L 2.488281 15.121094 L 6.273438 18.90625 C 6.339844 18.972656 6.371094 19.0625 6.367188 19.15625 C 6.359375 19.246094 6.3125 19.332031 6.238281 19.386719 L 3.179688 21.683594 L 6.730469 22.695312 C 6.824219 22.722656 6.898438 22.792969 6.9375 22.882812 C 6.976562 22.96875 6.96875 23.074219 6.921875 23.15625 L 5.433594 25.886719 L 9.582031 25.367188 C 9.589844 25.367188 9.597656 25.367188 9.601562 25.367188 L 14.964844 25.070312 C 14.972656 25.070312 14.976562 25.066406 14.984375 25.066406 Z M 14.984375 25.066406 "/>
<path style=" stroke:none;fill-rule:nonzero;fill:rgb(99.607843%,83.529412%,70.196078%);fill-opacity:1;" d="M 10.558594 20.480469 C 10.558594 21.539062 9.699219 22.398438 8.640625 22.398438 C 7.578125 22.398438 6.71875 21.539062 6.71875 20.480469 C 6.71875 19.417969 7.578125 18.558594 8.640625 18.558594 C 9.699219 18.558594 10.558594 19.417969 10.558594 20.480469 Z M 10.558594 20.480469 "/>
<path style=" stroke:none;fill-rule:nonzero;fill:rgb(0%,0%,0%);fill-opacity:1;" d="M 8.640625 22.71875 C 7.40625 22.71875 6.398438 21.714844 6.398438 20.480469 C 6.398438 19.246094 7.40625 18.238281 8.640625 18.238281 C 9.875 18.238281 10.878906 19.246094 10.878906 20.480469 C 10.878906 21.714844 9.875 22.71875 8.640625 22.71875 Z M 8.640625 18.878906 C 7.757812 18.878906 7.039062 19.597656 7.039062 20.480469 C 7.039062 21.363281 7.757812 22.078125 8.640625 22.078125 C 9.523438 22.078125 10.238281 21.363281 10.238281 20.480469 C 10.238281 19.597656 9.523438 18.878906 8.640625 18.878906 Z M 8.640625 18.878906 "/>
<path style=" stroke:none;fill-rule:nonzero;fill:rgb(99.607843%,83.529412%,70.196078%);fill-opacity:1;" d="M 23.679688 20.480469 C 23.679688 21.539062 22.820312 22.398438 21.761719 22.398438 C 20.699219 22.398438 19.839844 21.539062 19.839844 20.480469 C 19.839844 19.417969 20.699219 18.558594 21.761719 18.558594 C 22.820312 18.558594 23.679688 19.417969 23.679688 20.480469 Z M 23.679688 20.480469 "/>
<path style=" stroke:none;fill-rule:nonzero;fill:rgb(0%,0%,0%);fill-opacity:1;" d="M 21.761719 22.71875 C 20.523438 22.71875 19.519531 21.714844 19.519531 20.480469 C 19.519531 19.246094 20.523438 18.238281 21.761719 18.238281 C 22.996094 18.238281 24 19.246094 24 20.480469 C 24 21.714844 22.996094 22.71875 21.761719 22.71875 Z M 21.761719 18.878906 C 20.878906 18.878906 20.160156 19.597656 20.160156 20.480469 C 20.160156 21.363281 20.878906 22.078125 21.761719 22.078125 C 22.640625 22.078125 23.359375 21.363281 23.359375 20.480469 C 23.359375 19.597656 22.640625 18.878906 21.761719 18.878906 Z M 21.761719 18.878906 "/>
<path style=" stroke:none;fill-rule:nonzero;fill:rgb(99.607843%,83.529412%,70.196078%);fill-opacity:1;" d="M 8.617188 13.328125 C 8.617188 13.328125 7.429688 22.640625 9.800781 26.847656 C 12.175781 31.058594 18.992188 31.359375 20.773438 26.550781 C 22.550781 21.742188 22.15625 16.410156 21.660156 12.726562 C 20.773438 6.113281 9.210938 4.011719 8.617188 13.328125 Z M 8.617188 13.328125 "/>
<path style=" stroke:none;fill-rule:nonzero;fill:rgb(0%,0%,0%);fill-opacity:1;" d="M 15.507812 30.398438 C 13.050781 30.398438 10.695312 29.082031 9.523438 27.007812 C 7.144531 22.789062 8.234375 13.808594 8.296875 13.296875 C 8.601562 8.597656 11.621094 6.820312 14.34375 6.722656 C 17.613281 6.609375 21.464844 8.855469 21.976562 12.683594 C 22.464844 16.3125 22.902344 21.707031 21.070312 26.660156 C 20.28125 28.800781 18.402344 30.191406 16.050781 30.378906 C 15.871094 30.394531 15.6875 30.398438 15.507812 30.398438 Z M 14.589844 7.359375 C 14.515625 7.359375 14.441406 7.359375 14.367188 7.363281 C 11.199219 7.476562 9.167969 9.710938 8.9375 13.347656 C 8.9375 13.351562 8.933594 13.359375 8.933594 13.367188 C 8.921875 13.457031 7.789062 22.625 10.082031 26.691406 C 11.21875 28.707031 13.59375 29.929688 16 29.742188 C 18.128906 29.570312 19.757812 28.367188 20.472656 26.4375 C 22.253906 21.621094 21.824219 16.328125 21.34375 12.769531 C 20.886719 9.378906 17.53125 7.359375 14.589844 7.359375 Z M 8.617188 13.328125 L 8.621094 13.328125 Z M 8.617188 13.328125 "/>
<path style=" stroke:none;fill-rule:nonzero;fill:rgb(100%,100%,100%);fill-opacity:1;" d="M 10.128906 14.878906 C 9.804688 15.40625 9.667969 16.054688 9.824219 16.746094 C 10.035156 17.6875 10.808594 18.433594 11.757812 18.613281 C 13.339844 18.910156 14.71875 17.707031 14.71875 16.179688 C 14.71875 15.703125 14.582031 15.257812 14.351562 14.878906 Z M 10.128906 14.878906 "/>
<path style=" stroke:none;fill-rule:nonzero;fill:rgb(0%,0%,0%);fill-opacity:1;" d="M 12.234375 18.816406 C 12.066406 18.816406 11.898438 18.800781 11.726562 18.769531 C 10.722656 18.582031 9.894531 17.78125 9.667969 16.78125 C 9.511719 16.09375 9.628906 15.386719 9.992188 14.796875 C 10.023438 14.75 10.074219 14.71875 10.128906 14.71875 L 14.351562 14.71875 C 14.40625 14.71875 14.457031 14.75 14.484375 14.796875 C 14.742188 15.214844 14.878906 15.691406 14.878906 16.179688 C 14.878906 16.96875 14.53125 17.707031 13.925781 18.210938 C 13.445312 18.609375 12.851562 18.816406 12.234375 18.816406 Z M 10.222656 15.039062 C 9.9375 15.542969 9.851562 16.132812 9.980469 16.710938 C 10.175781 17.589844 10.902344 18.289062 11.785156 18.457031 C 12.480469 18.585938 13.1875 18.410156 13.71875 17.964844 C 14.253906 17.523438 14.558594 16.871094 14.558594 16.179688 C 14.558594 15.78125 14.457031 15.390625 14.257812 15.039062 Z M 10.222656 15.039062 "/>
<path style=" stroke:none;fill-rule:nonzero;fill:rgb(99.607843%,83.529412%,70.196078%);fill-opacity:1;" d="M 10.953125 13.871094 C 10.261719 14.292969 9.796875 15.039062 9.765625 15.898438 C 11.421875 15.464844 13.066406 15.398438 14.703125 15.710938 C 14.621094 14.988281 14.230469 14.359375 13.667969 13.960938 "/>
<path style=" stroke:none;fill-rule:nonzero;fill:rgb(0%,0%,0%);fill-opacity:1;" d="M 9.765625 16.058594 C 9.730469 16.058594 9.695312 16.046875 9.664062 16.023438 C 9.625 15.992188 9.601562 15.945312 9.605469 15.894531 C 9.636719 15.003906 10.109375 14.199219 10.867188 13.734375 C 10.941406 13.6875 11.042969 13.710938 11.089844 13.789062 C 11.132812 13.863281 11.109375 13.960938 11.035156 14.007812 C 10.429688 14.378906 10.03125 14.996094 9.941406 15.6875 C 11.46875 15.316406 13.003906 15.257812 14.507812 15.511719 C 14.390625 14.941406 14.058594 14.433594 13.574219 14.09375 C 13.503906 14.042969 13.488281 13.941406 13.539062 13.871094 C 13.589844 13.796875 13.691406 13.78125 13.761719 13.832031 C 14.375 14.265625 14.777344 14.945312 14.863281 15.691406 C 14.867188 15.742188 14.847656 15.792969 14.8125 15.828125 C 14.773438 15.863281 14.722656 15.875 14.671875 15.867188 C 13.074219 15.5625 11.433594 15.625 9.804688 16.054688 C 9.792969 16.058594 9.777344 16.058594 9.765625 16.058594 Z M 9.765625 16.058594 "/>
<path style=" stroke:none;fill-rule:nonzero;fill:rgb(100%,100%,100%);fill-opacity:1;" d="M 16.210938 14.878906 C 15.886719 15.40625 15.75 16.054688 15.902344 16.746094 C 16.117188 17.6875 16.890625 18.433594 17.835938 18.613281 C 19.417969 18.910156 20.800781 17.707031 20.800781 16.179688 C 20.800781 15.703125 20.664062 15.257812 20.429688 14.878906 Z M 16.210938 14.878906 "/>
<path style=" stroke:none;fill-rule:nonzero;fill:rgb(0%,0%,0%);fill-opacity:1;" d="M 18.316406 18.816406 C 18.148438 18.816406 17.976562 18.800781 17.808594 18.769531 C 16.800781 18.582031 15.972656 17.78125 15.746094 16.78125 C 15.59375 16.09375 15.707031 15.386719 16.074219 14.796875 C 16.101562 14.75 16.15625 14.71875 16.210938 14.71875 L 20.429688 14.71875 C 20.484375 14.71875 20.535156 14.75 20.566406 14.796875 C 20.824219 15.214844 20.960938 15.691406 20.960938 16.179688 C 20.960938 16.96875 20.613281 17.707031 20.003906 18.210938 C 19.527344 18.609375 18.929688 18.816406 18.316406 18.816406 Z M 16.300781 15.039062 C 16.015625 15.542969 15.929688 16.132812 16.058594 16.710938 C 16.257812 17.589844 16.984375 18.289062 17.867188 18.457031 C 18.5625 18.585938 19.265625 18.410156 19.800781 17.964844 C 20.332031 17.523438 20.640625 16.871094 20.640625 16.179688 C 20.640625 15.78125 20.535156 15.390625 20.339844 15.039062 Z M 16.300781 15.039062 "/>
<path style=" stroke:none;fill-rule:nonzero;fill:rgb(99.607843%,83.529412%,70.196078%);fill-opacity:1;" d="M 17.03125 13.871094 C 16.34375 14.292969 15.875 15.039062 15.84375 15.898438 C 17.5 15.464844 19.148438 15.398438 20.785156 15.710938 C 20.703125 14.988281 20.3125 14.359375 19.75 13.960938 "/>
<path style=" stroke:none;fill-rule:nonzero;fill:rgb(0%,0%,0%);fill-opacity:1;" d="M 15.84375 16.058594 C 15.808594 16.058594 15.773438 16.046875 15.746094 16.023438 C 15.707031 15.992188 15.683594 15.945312 15.683594 15.894531 C 15.71875 15.003906 16.1875 14.199219 16.949219 13.734375 C 17.023438 13.6875 17.121094 13.710938 17.167969 13.789062 C 17.214844 13.863281 17.191406 13.960938 17.113281 14.007812 C 16.507812 14.378906 16.113281 14.996094 16.023438 15.6875 C 17.550781 15.316406 19.085938 15.257812 20.589844 15.511719 C 20.46875 14.941406 20.136719 14.433594 19.65625 14.09375 C 19.582031 14.042969 19.566406 13.941406 19.617188 13.871094 C 19.667969 13.796875 19.769531 13.78125 19.839844 13.832031 C 20.457031 14.265625 20.859375 14.945312 20.941406 15.691406 C 20.949219 15.742188 20.929688 15.792969 20.890625 15.828125 C 20.855469 15.863281 20.800781 15.875 20.753906 15.867188 C 19.152344 15.5625 17.515625 15.625 15.886719 16.054688 C 15.871094 16.058594 15.859375 16.058594 15.84375 16.058594 Z M 15.84375 16.058594 "/>
<path style=" stroke:none;fill-rule:nonzero;fill:rgb(0%,0%,0%);fill-opacity:1;" d="M 12.800781 15.839844 C 12.800781 16.105469 12.585938 16.320312 12.320312 16.320312 C 12.054688 16.320312 11.839844 16.105469 11.839844 15.839844 C 11.839844 15.574219 12.054688 15.359375 12.320312 15.359375 C 12.585938 15.359375 12.800781 15.574219 12.800781 15.839844 Z M 12.800781 15.839844 "/>
<path style=" stroke:none;fill-rule:nonzero;fill:rgb(0%,0%,0%);fill-opacity:1;" d="M 18.878906 15.839844 C 18.878906 16.105469 18.664062 16.320312 18.398438 16.320312 C 18.136719 16.320312 17.921875 16.105469 17.921875 15.839844 C 17.921875 15.574219 18.136719 15.359375 18.398438 15.359375 C 18.664062 15.359375 18.878906 15.574219 18.878906 15.839844 Z M 18.878906 15.839844 "/>
<path style=" stroke:none;fill-rule:nonzero;fill:rgb(0%,0%,0%);fill-opacity:1;" d="M 11.914062 20.046875 C 10.835938 20.046875 10.121094 19.417969 10.082031 19.382812 C 10.015625 19.324219 10.011719 19.222656 10.070312 19.15625 C 10.128906 19.09375 10.230469 19.085938 10.296875 19.144531 C 10.339844 19.1875 11.417969 20.125 12.902344 19.53125 C 12.980469 19.5 13.074219 19.539062 13.109375 19.621094 C 13.140625 19.703125 13.101562 19.796875 13.019531 19.828125 C 12.621094 19.988281 12.25 20.046875 11.914062 20.046875 Z M 11.914062 20.046875 "/>
<path style=" stroke:none;fill-rule:nonzero;fill:rgb(0%,0%,0%);fill-opacity:1;" d="M 18.273438 20.046875 C 17.9375 20.046875 17.566406 19.988281 17.167969 19.828125 C 17.085938 19.796875 17.046875 19.703125 17.082031 19.621094 C 17.113281 19.539062 17.207031 19.5 17.289062 19.53125 C 18.777344 20.128906 19.882812 19.15625 19.894531 19.144531 C 19.957031 19.085938 20.058594 19.09375 20.117188 19.15625 C 20.179688 19.222656 20.171875 19.324219 20.105469 19.382812 C 20.070312 19.417969 19.351562 20.046875 18.273438 20.046875 Z M 18.273438 20.046875 "/>
<path style=" stroke:none;fill-rule:nonzero;fill:rgb(0%,0%,0%);fill-opacity:1;" d="M 16.019531 9.839844 C 15.945312 9.839844 15.875 9.785156 15.863281 9.707031 C 15.847656 9.617188 15.910156 9.535156 15.996094 9.523438 C 16.378906 9.460938 16.742188 9.382812 17.074219 9.285156 C 17.160156 9.261719 17.25 9.3125 17.273438 9.394531 C 17.296875 9.480469 17.25 9.570312 17.164062 9.59375 C 16.816406 9.691406 16.441406 9.773438 16.046875 9.839844 C 16.039062 9.839844 16.03125 9.839844 16.019531 9.839844 Z M 16.019531 9.839844 "/>
<path style=" stroke:none;fill-rule:nonzero;fill:rgb(0%,0%,0%);fill-opacity:1;" d="M 13.875 10 C 12.96875 10 12.335938 9.921875 12.300781 9.917969 C 12.210938 9.90625 12.152344 9.828125 12.160156 9.738281 C 12.171875 9.652344 12.257812 9.589844 12.339844 9.601562 C 12.351562 9.601562 13.554688 9.75 15.007812 9.636719 C 15.085938 9.628906 15.171875 9.695312 15.175781 9.785156 C 15.183594 9.875 15.117188 9.949219 15.03125 9.957031 C 14.617188 9.988281 14.222656 10 13.875 10 Z M 13.875 10 "/>
<path style=" stroke:none;fill-rule:nonzero;fill:rgb(0%,0%,0%);fill-opacity:1;" d="M 15.039062 22.320312 C 14.78125 22.320312 14.535156 22.1875 14.363281 21.957031 C 14.175781 21.710938 14.078125 21.367188 14.078125 20.960938 L 14.078125 19.039062 C 14.078125 18.953125 14.152344 18.878906 14.238281 18.878906 C 14.328125 18.878906 14.398438 18.953125 14.398438 19.039062 L 14.398438 20.960938 C 14.398438 21.675781 14.730469 22 15.039062 22 C 15.347656 22 15.679688 21.675781 15.679688 20.960938 L 15.679688 19.039062 C 15.679688 18.953125 15.75 18.878906 15.839844 18.878906 C 15.929688 18.878906 16 18.953125 16 19.039062 L 16 20.960938 C 16 21.894531 15.503906 22.320312 15.039062 22.320312 Z M 15.039062 22.320312 "/>
<path style=" stroke:none;fill-rule:nonzero;fill:rgb(0%,0%,0%);fill-opacity:1;" d="M 18.71875 25.601562 C 18.699219 25.601562 18.679688 25.597656 18.660156 25.585938 C 14.929688 24.035156 11.460938 25.570312 11.425781 25.585938 C 11.347656 25.621094 11.25 25.585938 11.214844 25.507812 C 11.179688 25.425781 11.214844 25.332031 11.292969 25.292969 C 11.328125 25.277344 14.921875 23.683594 18.78125 25.292969 C 18.863281 25.324219 18.902344 25.417969 18.867188 25.5 C 18.84375 25.5625 18.78125 25.601562 18.71875 25.601562 Z M 18.71875 25.601562 "/>
<path style=" stroke:none;fill-rule:nonzero;fill:rgb(80.392157%,79.607843%,74.117647%);fill-opacity:1;" d="M 6.355469 11.800781 L 7.011719 12.65625 "/>
<path style=" stroke:none;fill-rule:nonzero;fill:rgb(0%,0%,0%);fill-opacity:1;" d="M 7.011719 12.816406 C 6.964844 12.816406 6.917969 12.796875 6.886719 12.753906 L 6.230469 11.898438 C 6.175781 11.828125 6.1875 11.726562 6.261719 11.671875 C 6.332031 11.621094 6.429688 11.632812 6.484375 11.703125 L 7.140625 12.558594 C 7.195312 12.628906 7.179688 12.730469 7.109375 12.785156 C 7.082031 12.804688 7.046875 12.816406 7.011719 12.816406 Z M 7.011719 12.816406 "/>
<path style=" stroke:none;fill-rule:nonzero;fill:rgb(80.392157%,79.607843%,74.117647%);fill-opacity:1;" d="M 4.070312 8.816406 L 5.714844 10.960938 "/>
<path style=" stroke:none;fill-rule:nonzero;fill:rgb(0%,0%,0%);fill-opacity:1;" d="M 5.714844 11.121094 C 5.664062 11.121094 5.617188 11.097656 5.585938 11.058594 L 3.945312 8.914062 C 3.890625 8.84375 3.902344 8.742188 3.972656 8.691406 C 4.042969 8.636719 4.144531 8.648438 4.199219 8.71875 L 5.839844 10.863281 C 5.894531 10.933594 5.882812 11.035156 5.8125 11.085938 C 5.78125 11.109375 5.746094 11.121094 5.714844 11.121094 Z M 5.714844 11.121094 "/>
<path style=" stroke:none;fill-rule:nonzero;fill:rgb(80.392157%,79.607843%,74.117647%);fill-opacity:1;" d="M 8.828125 5.445312 L 9.339844 7.671875 "/>
<path style=" stroke:none;fill-rule:nonzero;fill:rgb(0%,0%,0%);fill-opacity:1;" d="M 9.339844 7.832031 C 9.269531 7.832031 9.203125 7.78125 9.183594 7.710938 L 8.671875 5.484375 C 8.652344 5.398438 8.707031 5.3125 8.792969 5.292969 C 8.882812 5.273438 8.964844 5.324219 8.984375 5.410156 L 9.496094 7.636719 C 9.515625 7.722656 9.464844 7.808594 9.378906 7.828125 C 9.363281 7.832031 9.351562 7.832031 9.339844 7.832031 Z M 9.339844 7.832031 "/>
<path style=" stroke:none;fill-rule:nonzero;fill:rgb(80.392157%,79.607843%,74.117647%);fill-opacity:1;" d="M 8.402344 3.589844 L 8.605469 4.46875 "/>
<path style=" stroke:none;fill-rule:nonzero;fill:rgb(0%,0%,0%);fill-opacity:1;" d="M 8.605469 4.625 C 8.53125 4.625 8.464844 4.578125 8.449219 4.503906 L 8.246094 3.625 C 8.226562 3.539062 8.28125 3.453125 8.367188 3.433594 C 8.453125 3.414062 8.539062 3.464844 8.558594 3.550781 L 8.761719 4.429688 C 8.78125 4.515625 8.726562 4.601562 8.640625 4.621094 C 8.628906 4.625 8.617188 4.625 8.605469 4.625 Z M 8.605469 4.625 "/>
<path style=" stroke:none;fill-rule:nonzero;fill:rgb(63.921569%,63.921569%,80.392157%);fill-opacity:1;" d="M 13.035156 12.980469 C 12.222656 12.980469 11.363281 12.929688 10.460938 12.792969 C 10.113281 12.738281 9.875 12.414062 9.925781 12.0625 C 9.980469 11.714844 10.3125 11.472656 10.65625 11.527344 C 12.773438 11.851562 14.625 11.660156 16.261719 11.488281 C 17.753906 11.328125 19.042969 11.195312 20.054688 11.558594 C 20.390625 11.679688 20.5625 12.042969 20.441406 12.375 C 20.320312 12.710938 19.957031 12.882812 19.625 12.761719 C 18.886719 12.5 17.730469 12.621094 16.394531 12.761719 C 15.410156 12.863281 14.28125 12.980469 13.035156 12.980469 Z M 13.035156 12.980469 "/>
<path style=" stroke:none;fill-rule:nonzero;fill:rgb(0%,0%,0%);fill-opacity:1;" d="M 13.035156 13.140625 C 12.125 13.140625 11.273438 13.078125 10.4375 12.949219 C 10.003906 12.882812 9.703125 12.472656 9.769531 12.039062 C 9.800781 11.828125 9.914062 11.640625 10.089844 11.511719 C 10.261719 11.386719 10.472656 11.335938 10.683594 11.371094 C 12.777344 11.691406 14.621094 11.5 16.246094 11.328125 C 17.757812 11.167969 19.066406 11.03125 20.109375 11.40625 C 20.3125 11.480469 20.472656 11.625 20.5625 11.820312 C 20.65625 12.011719 20.664062 12.230469 20.59375 12.429688 C 20.445312 12.84375 19.984375 13.0625 19.570312 12.914062 C 18.867188 12.660156 17.730469 12.78125 16.410156 12.917969 C 15.414062 13.023438 14.285156 13.140625 13.035156 13.140625 Z M 10.558594 11.679688 C 10.457031 11.679688 10.359375 11.710938 10.277344 11.773438 C 10.171875 11.847656 10.105469 11.960938 10.085938 12.085938 C 10.046875 12.347656 10.226562 12.59375 10.488281 12.632812 C 11.304688 12.761719 12.140625 12.820312 13.035156 12.820312 C 14.269531 12.820312 15.386719 12.703125 16.375 12.601562 C 17.734375 12.457031 18.90625 12.335938 19.679688 12.613281 C 19.925781 12.699219 20.203125 12.570312 20.292969 12.320312 C 20.335938 12.203125 20.328125 12.070312 20.273438 11.957031 C 20.21875 11.839844 20.121094 11.75 20 11.707031 C 19.023438 11.355469 17.75 11.492188 16.277344 11.644531 C 14.632812 11.820312 12.769531 12.015625 10.632812 11.6875 C 10.609375 11.679688 10.582031 11.679688 10.558594 11.679688 Z M 10.558594 11.679688 "/>
</g>
</svg>
